Coordinates
version=1
nRows=5
nColumns=40
inDegrees=yes

Units are S.I. units (second, meters, Newtons, ...)
If the header above contains a line with 'inDegrees', this indicates whether rotational values are in degrees (yes) or radians (no).

endheader
time	pelvis_tilt	pelvis_list	pelvis_rotation	pelvis_tx	pelvis_ty	pelvis_tz	hip_flexion_r	hip_adduction_r	hip_rotation_r	knee_angle_r	knee_angle_r_beta	ankle_angle_r	subtalar_angle_r	mtp_angle_r	hip_flexion_l	hip_adduction_l	hip_rotation_l	knee_angle_l	knee_angle_l_beta	ankle_angle_l	subtalar_angle_l	mtp_angle_l	lumbar_extension	lumbar_bending	lumbar_rotation	arm_flex_r	arm_add_r	arm_rot_r	elbow_flex_r	pro_sup_r	wrist_flex_r	wrist_dev_r	arm_flex_l	arm_add_l	arm_rot_l	elbow_flex_l	pro_sup_l	wrist_flex_l	wrist_dev_l
     11.67500000	      1.07512347	      2.11527329	      4.16933427	     -0.19539733	      1.09686045	      0.04328314	     38.35824801	    -11.40070114	     -3.36383641	     69.89979931	      1.21998164	    -17.80758945	    -39.29981160	      0.00000000	     70.03009210	     -1.21192209	      4.89633120	     79.66987867	      1.39050170	    -13.59788732	    -30.70897883	      0.00000000	    -59.33699648	     -0.98059932	     -6.45441893	     87.89963322	     -3.53838584	      5.08880022	     33.01435132	      6.92222625	      0.00000000	      0.00000000	     89.78889409	    -17.68716713	     25.50842772	     49.85484829	     88.94432337	      0.00000000	      0.00000000
     11.68333333	      1.33628249	      2.08390065	      4.08985611	     -0.19478053	      1.09717945	      0.04305910	     38.91020430	    -11.34403002	     -2.94747547	     71.92278094	      1.25528933	    -17.25009705	    -39.16846127	      0.00000000	     68.65688108	     -1.40006084	      4.66436322	     77.82160251	      1.35824319	    -14.00121191	    -30.87031485	      0.00000000	    -59.57336662	     -0.95432826	     -6.39490037	     87.89900354	     -3.43342506	      4.90208901	     32.96066851	      6.96121102	      0.00000000	      0.00000000	     89.78236202	    -17.78763676	     25.64393221	     49.84608630	     88.93756052	      0.00000000	      0.00000000
     11.69166667	      2.43550872	      1.66464003	      3.52253903	     -0.19294287	      1.09855818	      0.04377008	     38.37444113	    -10.63714780	     -2.60819861	     73.71433196	      1.28655780	    -16.40892346	    -38.78148219	      0.00000000	     66.41250378	     -2.54469779	      4.41495556	     76.23042985	      1.33047199	    -13.83847933	    -30.13745984	      0.00000000	    -60.57591929	     -1.08055500	     -5.68838664	     87.86195026	     -3.37026456	      4.80123101	     32.92910294	      6.77764816	      0.00000000	      0.00000000	     89.77323773	    -17.90303619	     25.94537469	     49.80676585	     88.93281513	      0.00000000	      0.00000000
     11.70000000	      2.54437565	      1.35520708	      3.59079970	     -0.19254158	      1.09884531	      0.04363200	     38.99262200	    -10.47766612	     -2.55868585	     75.59323343	      1.31935082	    -15.53416937	    -38.40853735	      0.00000000	     65.02631667	     -2.66458117	      4.53111325	     74.07376788	      1.29283114	    -14.28714285	    -30.13011523	      0.00000000	    -60.66533291	     -0.79553957	     -5.46197856	     87.87050427	     -3.17019590	      4.14693732	     32.87907072	      7.68346896	      0.00000000	      0.00000000	     89.77310286	    -18.04970300	     26.23233843	     49.83459393	     88.93259123	      0.00000000	      0.00000000
     11.70833333	      2.48096620	      1.19502997	      3.47497954	     -0.19224584	      1.09884291	      0.04357026	     39.97749524	    -10.33251900	     -1.98997638	     77.67098797	      1.35561447	    -14.47448912	    -37.12111948	      0.00000000	     63.78557779	     -2.84654444	      4.47646178	     71.98968046	      1.25645695	    -14.88081027	    -30.46087269	      0.00000000	    -60.58906728	     -0.75629988	     -5.25654989	     87.86081910	     -3.20370658	      4.41406829	     32.88943420	      7.18907547	      0.00000000	      0.00000000	     89.76787496	    -18.08334071	     26.28918753	     49.77905095	     88.92824928	      0.00000000	      0.00000000
